<svg xmlns="http://www.w3.org/2000/svg" viewBox="0 0 166.3 166.3" enable-background="new 0 0 166.3 166.3"><g fill="#EB202F"><path d="M83.1 112.9c16.4 0 29.7-13.3 29.7-29.7S99.5 53.5 83.1 53.5 53.4 66.8 53.4 83.2s13.3 29.7 29.7 29.7zM83.1 83.2"/><path d="M48.8 112.9c-16.4 0-29.7-13.3-29.7-29.7s13.3-29.7 29.7-29.7v59.4zM117.5 145.7v-28.2h28.2c0 15.6-12.7 28.2-28.2 28.2zM48.8 20.6v28.2H20.5c.1-15.5 12.7-28.2 28.3-28.2"/><path d="M48.8 145.7v-28.2H20.6c0 15.6 12.6 28.2 28.2 28.2zM151.8 108.7V57.6c8.7 5.2 14.5 14.7 14.5 25.5 0 10.9-5.8 20.4-14.5 25.6zM57.6 14.5h51.1C103.5 5.8 94 0 83.2 0 72.3 0 62.8 5.8 57.6 14.5zM108.3 151.8H57.2c5.2 8.7 14.7 14.5 25.5 14.5 10.9 0 20.4-5.8 25.6-14.5zM112.9 117.5c0 16.4-13.3 29.7-29.7 29.7s-29.7-13.3-29.7-29.7h59.4zM117.5 112.9c16.4 0 29.7-13.3 29.7-29.7s-13.3-29.7-29.7-29.7v59.4zM112.9 48.9c0-16.4-13.3-29.7-29.7-29.7S53.5 32.5 53.5 48.9h59.4zM14.5 108.7V57.6C5.8 62.8 0 72.3 0 83.2c0 10.8 5.8 20.3 14.5 25.5zM145.7 48.9h-28.2V20.7c15.5-.1 28.2 12.6 28.2 28.2"/></g></svg>